<svg xml:space="preserve" style="enable-background:new 0 0 485.05 175.15;" viewBox="0 0 485.05 175.15" y="0px" x="0px" xmlns:xlink="http://www.w3.org/1999/xlink" xmlns="http://www.w3.org/2000/svg" id="图层_1" version="1.1">
<style type="text/css">
	.st0{fill:#333333;}
	.st1{fill:#00AE42;}
</style>
<g>
	<polygon points="160.26,143.47 160.26,101.95 148.62,101.95 148.62,153.19 191.24,153.19 187.6,143.47" class="st0"></polygon>
	<path d="M240.56,112.15h-40.93l3.34,8.83h37.18c0.63,0,1.13,0.51,1.13,1.13l-0.01,5.21h-33.18
		c-6.26,0-11.34,5.08-11.34,11.34v3.19c0,6.26,5.08,11.34,11.34,11.34h43.8l0.01-29.74C251.9,117.19,246.83,112.15,240.56,112.15z
		 M241.26,144.27H208.5c-0.63,0-1.13-0.51-1.13-1.13v-5.82c0-0.63,0.51-1.13,1.13-1.13h32.76V144.27z" class="st0"></path>
	<path d="M300.51,112.15H273.8v-10.24h-0.22h-11.42v51.28h11.64h26.71c6.26,0,11.34-5.08,11.34-11.34v-18.36
		C311.85,117.23,306.77,112.15,300.51,112.15z M300.43,143.14c0,0.63-0.51,1.13-1.13,1.13h-25.5v-23.12h25.5
		c0.63,0,1.13,0.51,1.13,1.13V143.14z" class="st0"></path>
	<path d="M336.96,46.37h-57.65v41.04h11.31v-30.9c0-0.63,0.51-1.13,1.13-1.13h15.3c0.63,0,1.13,0.51,1.13,1.13v30.9
		h11.37v-30.9c0-0.63,0.51-1.13,1.13-1.13h15.08c0.63,0,1.13,0.51,1.13,1.13v30.9h11.39v-29.7
		C348.3,51.45,343.22,46.37,336.96,46.37z" class="st0"></path>
	<path d="M456.95,46.37v30.99c0,0.63-0.51,1.13-1.13,1.13h-27.22c-0.63,0-1.13-0.51-1.13-1.13V46.37h-10.71v29.7
		c0,6.26,5.08,11.34,11.34,11.34h28.15c6.26,0,11.34-5.08,11.34-11.34v-29.7H456.95z" class="st0"></path>
	<path d="M225.24,87.41h43.8l0.01-29.74c0-6.26-5.08-11.3-11.34-11.3h-40.93l3.34,8.83h37.18
		c0.63,0,1.13,0.51,1.13,1.13l-0.01,5.21h-33.18c-6.26,0-11.34,5.08-11.34,11.34v3.19C213.91,82.33,218.98,87.41,225.24,87.41z
		 M224.53,71.53c0-0.63,0.51-1.13,1.13-1.13h32.76v8.08h-32.76c-0.63,0-1.13-0.51-1.13-1.13V71.53z" class="st0"></path>
	<path d="M395.9,46.37h-26.71V36.13h-0.22h-11.42v51.28h11.64h26.71c6.26,0,11.34-5.08,11.34-11.34V57.71
		C407.24,51.45,402.16,46.37,395.9,46.37z M395.82,77.36c0,0.63-0.51,1.13-1.13,1.13h-25.5V55.38h25.5c0.63,0,1.13,0.51,1.13,1.13
		V77.36z" class="st0"></path>
	<g>
		<polygon points="71.11,153.19 117.59,153.19 117.59,89.8 71.11,71.5" class="st0"></polygon>
		<polygon points="71.11,22.84 71.11,63.69 117.59,82 117.59,22.84" class="st0"></polygon>
		<polygon points="17.42,22.84 17.42,104.53 63.89,86.23 63.89,22.84" class="st0"></polygon>
		<polygon points="17.42,153.19 63.89,153.19 63.89,94.03 17.42,112.34" class="st0"></polygon>
	</g>
	<polygon points="148.62,27.4 148.62,38.47 160.26,34 160.26,22.93" class="st0"></polygon>
	<path d="M183.03,34c-2.43,0-13.77,0-22.77,0v9.13l-11.64,4.47v39.81h41.28c0.08,0,0.16,0.01,0.24,0.01
		c0.08,0,0.16-0.01,0.24-0.01c8.28-0.13,14.95-6.87,14.95-15.18c0-4.69-2.12-8.87-5.46-11.66c0.07-0.08,0.13-0.17,0.19-0.26
		c2.02-2.67,3.24-5.98,3.24-9.58c0-6.79-4.27-12.57-10.27-14.84c0,0,0,0,0,0c-2.75-1.18-5.89-1.85-9.16-1.89
		C183.75,34,183.33,34,183.03,34z M160.26,43.13h13.21h11.52c0.73,0,1.43,0.16,2.07,0.44c2.34,0.92,4.01,3.2,4.01,5.88
		c0,0-0.05,0.89-0.14,1.32c-0.34,2.04-1.7,3.66-3.53,4.42c-0.81,0.37-1.7,0.59-2.65,0.59h-12.39h-12.1V43.13z M186.61,78.5h-10.29
		h-16.05V64.86h16.6h3.32h6.42c1.55,0,2.98,0.53,4.12,1.4c1.63,1.25,2.69,3.21,2.69,5.42C193.42,75.45,190.37,78.5,186.61,78.5z" class="st0"></path>
</g>
</svg>
