<svg id="Layer_1" data-name="Layer 1" xmlns="http://www.w3.org/2000/svg" viewBox="0 0 420.85 439.17"><path d="M87.08,448.89H99.42v58.39H87.08Z" transform="translate(-87.08 -86.53)"/><path d="M103.86,487c0-12.34,9-21.38,21.87-21.38s21.87,9,21.87,21.38-9,21.38-21.87,21.38S103.86,499.3,103.86,487Zm31.25,0c0-5.84-3.79-9.87-9.38-9.87s-9.37,4-9.37,9.87,3.78,9.86,9.37,9.86S135.11,492.8,135.11,487Z" transform="translate(-87.08 -86.53)"/><path d="M149.08,494.94h12.17c.09,2.14,1.65,3.21,5,3.21,3.78,0,5-1.32,5-3,0-2.72-3-3-6.75-3.54-5.59-.82-14.8-2.22-14.8-12,0-8.23,6.5-14,16.61-14s16.37,5.83,16.61,13.15H171c-.33-1.89-2-3-4.44-3-3.05,0-4.28,1.56-4.28,3.21,0,2.47,3,2.8,6.74,3.37,5.84.82,14.8,2.39,14.8,12,0,8.38-6.9,14-17.35,14S149.25,502.75,149.08,494.94Z" transform="translate(-87.08 -86.53)"/><path d="M186.91,491.24v-39h12.33v14.4h19.25v11.1H199.24v13.48c0,4.28,2,5.59,4.69,5.59s4.69-1.31,4.69-5.59V490H221v1.23c0,11.6-6.91,17.11-17,17.11S186.91,502.84,186.91,491.24Z" transform="translate(-87.08 -86.53)"/><path d="M223.58,486.55V448.89h12.34V471.1c2.55-3.62,6.66-5.51,11.51-5.51,9.21,0,19.73,6.74,19.73,20.88,0,13.08-9,21.88-22,21.88C232.79,508.35,223.58,500.21,223.58,486.55Zm31.09.42c0-5.84-3.79-9.87-9.38-9.87s-9.37,4-9.37,9.87,3.78,9.86,9.37,9.86S254.67,492.8,254.67,487Z" transform="translate(-87.08 -86.53)"/><path d="M268.64,487c0-12.34,9.05-21.38,21.88-21.38s21.87,9,21.87,21.38-9.05,21.38-21.87,21.38S268.64,499.3,268.64,487Zm31.25,0c0-5.84-3.78-9.87-9.37-9.87s-9.38,4-9.38,9.87,3.78,9.86,9.38,9.86S299.89,492.8,299.89,487Z" transform="translate(-87.08 -86.53)"/><path d="M315.84,511.22h12.34c1.23,2.72,3.37,3.79,7.32,3.79,5.42,0,7.81-2.55,7.81-8.72v-4a11.6,11.6,0,0,1-10.12,5.43c-8.55,0-17.68-5.76-17.68-20.64V466.66h12.34v20.39c0,6.41,3.12,9.13,7.73,9.13,4.44,0,7.73-2.88,7.73-9.13V466.66h12.33v39.22c0,14.14-9,19.82-20.14,19.82C325.88,525.7,317.9,521.26,315.84,511.22Z" transform="translate(-87.08 -86.53)"/><path d="M360.08,494.94h12.17c.08,2.14,1.65,3.21,5,3.21,3.78,0,5-1.32,5-3,0-2.72-3-3-6.74-3.54-5.59-.82-14.8-2.22-14.8-12,0-8.23,6.5-14,16.61-14s16.36,5.83,16.61,13.15H382c-.32-1.89-2-3-4.44-3-3,0-4.27,1.56-4.27,3.21,0,2.47,3,2.8,6.74,3.37,5.84.82,14.8,2.39,14.8,12,0,8.38-6.9,14-17.35,14S360.25,502.75,360.08,494.94Z" transform="translate(-87.08 -86.53)"/><path d="M399.22,448.89h12.34v58.39H399.22Z" transform="translate(-87.08 -86.53)"/><path d="M416,487.46c0-13.08,9-21.87,21.95-21.87,12.75,0,21.63,8.47,21.63,21.79v19.9H448.23v-6.75c-2.14,5-6.74,7.82-12.58,7.82C426.6,508.35,416,501.6,416,487.46Zm31.24-.49c0-5.84-3.78-9.87-9.37-9.87s-9.37,4-9.37,9.87,3.78,9.86,9.37,9.86S447.24,492.8,447.24,487Z" transform="translate(-87.08 -86.53)"/><path d="M464.35,486.55V448.89h12.33V471.1c2.55-3.62,6.66-5.51,11.51-5.51,9.21,0,19.74,6.74,19.74,20.88,0,13.08-9.05,21.88-22,21.88C473.56,508.35,464.35,500.21,464.35,486.55Zm31.08.42c0-5.84-3.78-9.87-9.37-9.87s-9.38,4-9.38,9.87,3.78,9.86,9.38,9.86S495.43,492.8,495.43,487Z" transform="translate(-87.08 -86.53)"/><path d="M396.87,362.81c3.22-2.67,6.34-5.46,9.33-8.38l-.15.11-41.42-24.11a111.09,111.09,0,0,0,25.4-27.3,108.33,108.33,0,0,0,6-10.29l-93.43-53.9V144.71a97.24,97.24,0,0,1,36.11,8.92v64.92h0l56.39,32.6L407,258a111.75,111.75,0,0,0,1.05-13.15c0-.78,0-1.56,0-2.35a110.57,110.57,0,0,0-57.51-97V108.63A144.22,144.22,0,0,1,440,263.32q-.9,6.3-2.35,12.4a142.67,142.67,0,0,1-12.73,33.95q-2.79,5.29-6,10.3l10.4,6q3.2-5,6-10.3A156.13,156.13,0,0,0,350.59,95.79q-5.85-2.12-11.92-3.77v47.84a110,110,0,0,0-36.11-7.8c-1.67-.08-3.36-.12-5.05-.12q-3.47,0-6.87.21V239.4L209.72,286a97.31,97.31,0,0,1-9.85-35.65v0l54.32-31.75V154.66h0V140.75A108.41,108.41,0,0,0,243,146.3a110.55,110.55,0,0,0-56.07,96.23c0,.53,0,1,0,1.48l-32,18.54A144.13,144.13,0,0,1,290.64,98.69h0q3.42-.16,6.87-.17c1.69,0,3.37,0,5.05.09v-12c-1.68,0-3.36-.08-5.05-.08q-3.45,0-6.87.15h0A156.14,156.14,0,0,0,143.75,269.07h0c.71,4.12,1.58,8.26,2.6,12.26l10.83-6.26h0l30.71-17.75a109.83,109.83,0,0,0,10.85,35.05h0a111,111,0,0,0,5.94,10.33h0L297,249.49l82,47.36a98.6,98.6,0,0,1-26.39,26.66L296.1,290.86l0,.07,0-.07-54.94,31.75-11.91,6.88a110.66,110.66,0,0,0,124.46,8.35h0l32.09,18.53a144,144,0,0,1-210-36.93q-3.18-5-6-10.32l-10.41,6q2.77,5.28,6,10.32a156,156,0,0,0,231.54,37.38ZM242.28,161.64V212l-42.55,24.65A97.83,97.83,0,0,1,242.28,161.64Zm55.23,178.84a97.53,97.53,0,0,1-44.81-10.82l43.36-25.06,44.73,25.83A97.55,97.55,0,0,1,297.51,340.48Zm97.82-103-44.74-25.83V160.2A97.88,97.88,0,0,1,395.33,237.52Z" transform="translate(-87.08 -86.53)"/></svg>