<svg class="brxe-svg" id="site-logo" xmlns="http://www.w3.org/2000/svg" fill="none" height="63" viewBox="0 0 325 63" width="325"><g fill="#1a1a1a"><path d="m97.6899 12.9099h23.8101l-1.36 6.35h-16.63l-1.99 9.6h13.74l-1.26 5.87h-13.74l-3.3 15.4201h-7.19z"></path><path d="m129.48 12.96h7.19l-7.92 37.19h-7.19z"></path><path d="m147.05 12.9099h19.09c1.05 0 1.97.22 2.75.66.79.44 1.44 1.01 1.97 1.7.52.7.92 1.5 1.18 2.41s.39 1.85.39 2.83c0 1.08-.17 2.15-.5 3.2s-.81 2.05-1.44 2.99-1.39 1.79-2.28 2.54-1.88 1.36-2.96 1.81c1.57.52 2.78 1.43 3.62 2.7.84 1.28 1.26 2.84 1.26 4.69s-.39 3.56-1.15 5.01c-.77 1.45-1.8 2.67-3.09 3.67s-2.78 1.75-4.46 2.26-3.41.76-5.19.76h-17.1l7.92-37.24zm10.49 31.1c.66 0 1.33-.16 1.99-.47s1.25-.74 1.76-1.29c.51-.54.92-1.17 1.23-1.89s.47-1.48.47-2.28c0-1.08-.27-2-.81-2.75s-1.29-1.13-2.23-1.13h-10.28l-2.05 9.81h9.91zm2.25-15.52c.63 0 1.25-.14 1.86-.42s1.16-.67 1.65-1.18.88-1.12 1.18-1.84.45-1.51.45-2.39c0-1.08-.26-1.95-.79-2.6-.52-.65-1.22-.97-2.1-.97h-9.13l-1.99 9.39h8.86z"></path><path d="m184.08 12.9099h24.13l-1.31 6.35h-16.99l-1.89 8.97h14.63l-1.26 5.87h-14.63l-2.05 9.7h17.41l-1.36 6.3501h-24.6z"></path><path d="m209.1 50.15 7.92-37.2401h15.74c1.4 0 2.66.2901 3.78.8701s2.06 1.35 2.83 2.31 1.35 2.06 1.76 3.3c.4 1.24.6 2.5099.6 3.7999 0 1.36-.23 2.7001-.68 4.0101s-1.08 2.54-1.86 3.7-1.71 2.1899-2.78 3.0899c-1.07.91-2.23 1.6301-3.49 2.1501l5.04 14h-8.18l-4.41-12.4801h-6.45l-2.62 12.4801h-7.19zm19.51-18.8301c.7 0 1.39-.2 2.07-.6s1.29-.9399 1.81-1.6299c.52-.68.95-1.4701 1.29-2.3601.33-.89.5-1.83.5-2.81 0-1.33-.32-2.4399-.97-3.3299s-1.44-1.3401-2.39-1.3401h-8.08l-2.57 12.06h8.34z"></path><path d="m260.55 50.4099c-2.2 0-4.16-.43-5.87-1.28-1.71-.86-3.16-2-4.33-3.44-1.17-1.43-2.05-3.08-2.65-4.93s-.89-3.79-.89-5.82c0-2.83.6-5.59 1.81-8.26s2.82-5.05 4.85-7.13 4.36-3.75 7-5.01 5.39-1.89 8.26-1.89c2.2 0 4.15.44 5.85 1.31s3.11 2.03 4.25 3.46 2 3.09 2.6 4.98c.59 1.89.89 3.8299.89 5.8199 0 2.8-.59 5.5301-1.78 8.2101-1.19 2.67-2.79 5.04-4.8 7.11-2.01 2.06-4.33 3.72-6.95 4.98s-5.37 1.89-8.23 1.89zm1.42-6.4c1.92 0 3.68-.47 5.27-1.42 1.59-.94 2.96-2.1501 4.12-3.6201s2.05-3.0999 2.68-4.8999.94-3.57.94-5.32c0-1.29-.16-2.53-.47-3.7s-.8-2.19-1.44-3.07c-.65-.87-1.46-1.57-2.44-2.1-.98-.52-2.12-.79-3.41-.79-1.92 0-3.69.46-5.3 1.39s-2.99 2.12-4.14 3.59-2.05 3.0999-2.67 4.8999c-.63 1.8-.94 3.5901-.94 5.3801 0 1.29.16 2.52.47 3.67s.8 2.18 1.47 3.07c.66.89 1.48 1.6 2.44 2.12s2.11.79 3.44.79z"></path><path d="m294.17 12.9099h5.61l12.69 24.44 5.19-24.3899h7.19l-7.92 37.19h-5.82l-12.64-23.87-5.04 23.87h-7.19l7.92-37.2401z"></path><path d="m23.7 19.2399v-.0299h39.51l-6.3901-7.5201h-40.3599l-15.48002 18.23h13.22002z"></path><path d="m47.6899.939941h-22.0999l-6.39 7.520019h34.88z"></path><path d="m46.3999 50.8799-2.88 3.22h-24.74l6.8099 8.02h22.1l15.9401-18.77h-53.98l6.39 7.53z"></path><path d="m73.67 31.53-7.72-9.0901h-40.24l-6.6499 7.48h44.0199l-2.88 3.2201h-59.22002l5.93005 6.9799h59.45997z"></path></g></svg>